<svg height="800" width="800" version="1.1" id="_x32_" xmlns="http://www.w3.org/2000/svg" xmlns:xlink="http://www.w3.org/1999/xlink" viewBox="0 0 512 512" xml:space="preserve"><style type="text/css">.st0{fill:#ff8c3a;}</style><g><path class="st0" d="M424.994 126.551c30.029-30.029 30.018-78.738 0-108.766l-1.468-1.457L269.463 170.391l55.852 55.851L424.994 126.551z"/><path class="st0" d="M480.503 312.156c-20.898-20.932-48.609-31.531-76.01-31.498-14.518-.011-29.101 3.036-42.747 8.954L88.464 16.317l-1.469 1.469c-30.018 30.028-30.028 78.736 0 108.766L200.155 239.7l-49.912 49.911c-13.645-5.906-28.218-8.965-42.735-8.942-27.402-.044-55.123 10.554-76.021 31.487C10.554 333.054-.044 360.775 0 388.177c-.044 27.39 10.554 55.112 31.476 76.021 20.92 20.931 48.641 31.519 76.032 31.485 27.412.034 55.112-10.564 76.01-31.475l.021-.01c20.911-20.91 31.509-48.62 31.475-76.021.023-14.506-3.035-29.08-8.931-42.703l49.911-49.922 49.912 49.901c-5.896 13.634-8.954 28.207-8.932 42.725-.033 27.401 10.566 55.112 31.498 76.01 20.898 20.921 48.598 31.53 76.01 31.496 27.401.034 55.111-10.564 76.021-31.496 20.932-20.898 31.531-48.62 31.497-76.01C512.034 360.765 501.436 333.054 480.503 312.156zM135.582 416.229c-7.839 7.805-17.808 11.581-28.075 11.625-10.278-.044-20.226-3.82-28.064-11.625-7.805-7.828-11.581-17.785-11.614-28.052.033-10.278 3.809-20.226 11.614-28.064 7.828-7.805 17.786-11.581 28.064-11.614 10.277.044 20.224 3.809 28.064 11.614 7.805 7.828 11.569 17.786 11.613 28.064-.044 10.267-3.808 20.224-11.624 28.063L135.582 416.229zM256.006 260.156c-9.417 0-17.046-7.628-17.046-17.045 0-9.417 7.629-17.046 17.046-17.046 9.417 0 17.046 7.628 17.046 17.046C273.051 252.528 265.423 260.156 256.006 260.156zM432.546 416.217c-7.838 7.816-17.796 11.592-28.063 11.626-10.256-.034-20.214-3.81-28.053-11.626-7.805-7.828-11.581-17.796-11.625-28.041.044-10.278 3.808-20.226 11.625-28.064 7.839-7.816 17.786-11.581 28.064-11.625 10.256.034 20.214 3.808 28.052 11.625 7.805 7.839 11.581 17.797 11.625 28.064C444.126 398.444 440.362 408.39 432.546 416.217z"/></g></svg>